<svg id="visual" viewBox="0 0 900 600" width="900" height="600" xmlns="http://www.w3.org/2000/svg" xmlns:xlink="http://www.w3.org/1999/xlink" version="1.1"><rect x="0" y="0" width="900" height="600" fill="#fffffe"></rect><g transform="translate(841.6217202686507 36.86088111823568)"><path d="M119.5 -236.1C150.3 -116.6 167.5 -74.6 248.5 11.4C329.5 97.5 474.4 227.5 462.6 285.1C450.8 342.6 282.3 327.8 140 375.8C-2.4 423.8 -118.7 534.7 -198.3 517.5C-277.9 500.4 -320.8 355.2 -337.5 237.8C-354.1 120.3 -344.5 30.6 -334.9 -65.3C-325.4 -161.2 -316 -263.3 -260.2 -378.4C-204.4 -493.6 -102.2 -621.8 -28.9 -587.3C44.4 -552.9 88.7 -355.7 119.5 -236.1" fill="#0a1931"></path></g></svg>